<svg xmlns="http://www.w3.org/2000/svg" width="102" height="76" viewBox="0 0 102 76">
  <g fill="#202D40" fill-rule="evenodd">
    <g transform="translate(1 71)">
      <path d="M3.06540434,1.45207692 C3.03910585,1.3264359 2.99019066,1.209 2.91813281,1.10002564 C2.84660092,0.990794872 2.75692308,0.895923077 2.64909928,0.815153846 C2.54153846,0.734384615 2.41767258,0.670794872 2.27776463,0.624641026 C2.13785667,0.578487179 1.98769231,0.555410256 1.82753452,0.555410256 C1.6000526,0.555410256 1.39387245,0.595153846 1.20820513,0.674641026 C1.02280079,0.754128205 0.865009862,0.871564103 0.734832347,1.02694872 C0.604391847,1.18207692 0.503931624,1.37566667 0.433188692,1.60771795 C0.362708744,1.84028205 0.327468771,2.11002564 0.327468771,2.41797436 C0.327468771,2.72592308 0.362708744,2.99694872 0.433188692,3.23182051 C0.503931624,3.4664359 0.604391847,3.66361538 0.734832347,3.82258974 C0.865009862,3.9815641 1.02174885,4.10233333 1.20478632,4.18412821 C1.3878238,4.2664359 1.59163708,4.30746154 1.81675214,4.30746154 C2.15626561,4.30746154 2.43608153,4.22592308 2.65619987,4.06310256 C2.87631821,3.90028205 3.01280736,3.66233333 3.06540434,3.349 L3.36336621,3.349 C3.33443787,3.54951282 3.27605523,3.72823077 3.18742932,3.88592308 C3.0990664,4.04361538 2.98756082,4.17669231 2.85370151,4.28438462 C2.71984221,4.39207692 2.56547009,4.47412821 2.39084813,4.53079487 C2.21622617,4.58720513 2.02714004,4.61541026 1.82385273,4.61541026 C1.54640368,4.61541026 1.29683103,4.56335897 1.07566075,4.45951282 C0.854490467,4.35541026 0.665930309,4.20874359 0.510506246,4.019 C0.354819198,3.829 0.235161078,3.59874359 0.151531887,3.32797436 C0.0679026956,3.05746154 0.0258251151,2.75412821 0.0258251151,2.41797436 C0.0258251151,2.08464103 0.0679026956,1.78438462 0.151531887,1.51746154 C0.235161078,1.25079487 0.355345168,1.02284615 0.51234714,0.834384615 C0.669086128,0.645666667 0.85790927,0.500794872 1.07907955,0.399769231 C1.30051282,0.298230769 1.54850756,0.247717949 1.82385273,0.247717949 C2.01267587,0.247717949 2.19282051,0.276948718 2.36402367,0.335923077 C2.53470085,0.395153846 2.68854701,0.477717949 2.82503616,0.584128205 C2.96126233,0.690794872 3.07618672,0.817717949 3.16954635,0.965410256 C3.26290598,1.11284615 3.32733728,1.27515385 3.36336621,1.45207692 L3.06540434,1.45207692 Z"/>
      <polygon points="8.769 4.538 6.454 4.538 6.454 .324 6.742 .324 6.742 4.231 8.769 4.231"/>
      <path d="M13.4104405 4.30738462C13.6350296 4.30738462 13.8427876 4.26584615 14.0329257 4.18251282 14.2233268 4.09917949 14.3876923 3.97635897 14.5262853 3.81482051 14.6651414 3.65328205 14.7729652 3.45507692 14.8494938 3.22046154 14.9260224 2.98558974 14.9641552 2.71815385 14.9641552 2.41789744 14.9641552 2.11507692 14.9252334 1.84841026 14.8476529 1.61764103 14.7698093 1.38661538 14.6622485 1.19225641 14.5244444 1.03430769 14.3871663.876615385 14.2243787.757384615 14.0366075.676615385 13.8488363.595589744 13.6437081.555333333 13.4212229.555333333 13.1940039.555333333 12.985194.596358974 12.7947929.678666667 12.6049178.760717949 12.4402893.880717949 12.3014333 1.03841026 12.1628402 1.19610256 12.0544905 1.39046154 11.9769099 1.62123077 11.8990664 1.85225641 11.8601446 2.11789744 11.8601446 2.41789744 11.8601446 2.71815385 11.8982774 2.98558974 11.975069 3.22046154 12.0515976 3.45507692 12.1583695 3.65328205 12.2961736 3.81482051 12.4337147 3.97635897 12.5975542 4.09917949 12.7876923 4.18251282 12.9778304 4.26584615 13.1855884 4.30738462 13.4104405 4.30738462M13.4141223.247641026C13.6818409.247641026 13.9295726.298923077 14.1567916.401487179 14.3840105.504051282 14.5794083.650205128 14.7435108.840205128 14.9073504 1.03020513 15.0354241 1.25815385 15.1274688 1.52507692 15.2195135 1.792 15.2657988 2.08969231 15.2657988 2.41789744 15.2657988 2.74379487 15.2203024 3.04148718 15.1293097 3.31071795 15.0383169 3.58020513 14.9110322 3.81148718 14.7471926 4.00533333 14.5830901 4.19892308 14.3882183 4.34917949 14.1620513 4.45558974 13.9361473 4.562 13.6868376 4.61533333 13.4141223 4.61533333 13.141407 4.61533333 12.8910454 4.562 12.6638264 4.45558974 12.4366075 4.34917949 12.2412097 4.19969231 12.0773702 4.00712821 11.9135306 3.81482051 11.7859829 3.58405128 11.6952531 3.3145641 11.6042604 3.04507692 11.558764 2.74635897 11.558764 2.41789744 11.558764 2.08712821 11.6047863 1.78815385 11.696831 1.52123077 11.7888757 1.2545641 11.9174753 1.02687179 12.0826298.838410256 12.2477844.649692308 12.4431821.504051282 12.6693491.401487179 12.8955161.298923077 13.1435108.247641026 13.4141223.247641026M19.7993688 4.61538462C19.5647863 4.61538462 19.3646548 4.58871795 19.1984484 4.53641026 19.031979 4.48384615 18.8939119 4.4125641 18.7839842 4.32282051 18.6737936 4.23307692 18.5864826 4.12794872 18.5220513 4.00717949 18.457094 3.88666667 18.4081788 3.75846154 18.3747798 3.6225641 18.3411177 3.48666667 18.3203419 3.34538462 18.3119264 3.19923077 18.3037738 3.05282051 18.2993031 2.91051282 18.2993031 2.77205128L18.2993031.324615385 18.5864826.324615385 18.5864826 2.76051282C18.5864826 3.08128205 18.613307 3.34205128 18.6672189 3.54358974 18.7208679 3.74487179 18.8000263 3.90205128 18.9041683 4.01487179 19.0080473 4.12794872 19.135069 4.20461538 19.2844444 4.24589744 19.4338199 4.28692308 19.605549 4.3074359 19.7993688 4.3074359 19.9955556 4.3074359 20.1693886 4.28692308 20.3213938 4.24589744 20.4733991 4.20461538 20.6001578 4.12717949 20.7019329 4.01282051 20.8034451 3.89897436 20.8804997 3.74179487 20.9333596 3.54179487 20.9859566 3.34153846 21.0122551 3.08128205 21.0122551 2.76051282L21.0122551.324615385 21.2994346.324615385 21.2994346 2.77205128C21.2994346 3.06179487 21.2765549 3.32102564 21.2310585 3.54948718 21.1855621 3.77769231 21.1069297 3.97051282 20.9943721 4.12871795 20.8818146 4.28641026 20.7287574 4.40692308 20.5349375 4.49025641 20.3413807 4.57358974 20.0960158 4.61538462 19.7993688 4.61538462M27.3940828 2.39858974C27.3940828 2.12166667 27.3683103 1.87397436 27.3170283 1.65602564 27.2654832 1.43807692 27.1752794 1.2524359 27.0461538 1.10012821 26.9170283.947307692 26.7439842.831410256 26.5275477.751666667 26.3111111.672179487 26.0376068.632179487 25.7075608.632179487L24.8139382.632179487 24.8139382 4.23064103 25.7075608 4.23064103C26.03524 4.23064103 26.3074293 4.18935897 26.5238659 4.10730769 26.7405654 4.02525641 26.9133465 3.90525641 27.0424721 3.7475641 27.1715976 3.58987179 27.2625904 3.39782051 27.3151874 3.17217949 27.3675214 2.94653846 27.3940828 2.68858974 27.3940828 2.39858974M27.6991453 2.39858974C27.6991453 3.825 27.0377383 4.53833333 25.7146614 4.53833333L24.5270217 4.53833333 24.5270217.328333333 25.7146614.328333333C26.3773833.328333333 26.8736358.499615385 27.2039448.842179487 27.5339908 1.18474359 27.6991453 1.70346154 27.6991453 2.39858974M39.0594083 2.39858974C39.0594083 2.12166667 39.0336358 1.87397436 38.9823537 1.65602564 38.9310717 1.43807692 38.8406049 1.2524359 38.7117423 1.10012821 38.5823537.947307692 38.4093097.831410256 38.1928731.751666667 37.9764366.672179487 37.7031953.632179487 37.3728863.632179487L36.4792636.632179487 36.4792636 4.23064103 37.3728863 4.23064103C37.7008284 4.23064103 37.9727548 4.18935897 38.1891913 4.10730769 38.4058909 4.02525641 38.5786719 3.90525641 38.7080605 3.7475641 38.8369231 3.58987179 38.9279158 3.39782051 38.9807758 3.17217949 39.0331098 2.94653846 39.0594083 2.68858974 39.0594083 2.39858974M39.3644707 2.39858974C39.3644707 3.825 38.7030638 4.53833333 37.3799869 4.53833333L36.1923471 4.53833333 36.1923471.328333333 37.3799869.328333333C38.0429717.328333333 38.5392242.499615385 38.8692702.842179487 39.1995792 1.18474359 39.3644707 1.70346154 39.3644707 2.39858974"/>
      <polygon points="45.269 4.538 42.431 4.538 42.431 .324 45.172 .324 45.172 .632 42.718 .632 42.718 2.191 45.018 2.191 45.018 2.499 42.718 2.499 42.718 4.231 45.269 4.231"/>
      <polygon points="51.421 .325 49.882 4.538 49.512 4.538 47.973 .325 48.292 .325 49.699 4.153 51.105 .325"/>
      <polygon points="57.121 4.538 54.283 4.538 54.283 .324 57.024 .324 57.024 .632 54.57 .632 54.57 2.191 56.87 2.191 56.87 2.499 54.57 2.499 54.57 4.231 57.121 4.231"/>
      <polygon points="62.53 4.538 60.216 4.538 60.216 .324 60.503 .324 60.503 4.231 62.53 4.231"/>
      <path d="M67.1718343 4.30738462C67.3964234 4.30738462 67.6041815 4.26584615 67.7943195 4.18251282 67.9844576 4.09917949 68.1490861 3.97635897 68.2876792 3.81482051 68.4265352 3.65328205 68.534096 3.45507692 68.6108876 3.22046154 68.6874162 2.98558974 68.725549 2.71815385 68.725549 2.41789744 68.725549 2.11507692 68.6866272 1.84841026 68.6090467 1.61764103 68.5312032 1.38661538 68.4236423 1.19225641 68.2858383 1.03430769 68.1482972.876615385 67.9857725.757384615 67.7980013.676615385 67.6099671.595589744 67.4051019.555333333 67.1823537.555333333 66.9551348.555333333 66.7465878.596358974 66.5561867.678666667 66.3663116.760717949 66.2016831.880717949 66.0628271 1.03841026 65.9242341 1.19610256 65.8158843 1.39046154 65.7380408 1.62123077 65.6604602 1.85225641 65.6212755 2.11789744 65.6212755 2.41789744 65.6212755 2.71815385 65.6596713 2.98558974 65.7361999 3.22046154 65.8127285 3.45507692 65.9197633 3.65328205 66.0575674 3.81482051 66.1951085 3.97635897 66.3589481 4.09917949 66.5490861 4.18251282 66.7392242 4.26584615 66.9469822 4.30738462 67.1718343 4.30738462M67.1752531.247641026C67.4432347.247641026 67.6909665.298923077 67.9181854.401487179 68.1454043.504051282 68.3408021.650205128 68.5046417.840205128 68.6684813 1.03020513 68.7968179 1.25815385 68.8885996 1.52507692 68.9809073 1.792 69.0269297 2.08969231 69.0269297 2.41789744 69.0269297 2.74379487 68.9814333 3.04148718 68.8904405 3.31071795 68.7994477 3.58020513 68.6721631 3.81148718 68.5083235 4.00533333 68.3444839 4.19892308 68.1496121 4.34917949 67.9234451 4.45558974 67.6975411 4.562 67.4479684 4.61533333 67.1752531 4.61533333 66.9028008 4.61533333 66.6524392 4.562 66.4252202 4.45558974 66.1980013 4.34917949 66.0026036 4.19969231 65.838764 4.00712821 65.6746614 3.81482051 65.5471137 3.58405128 65.4566469 3.3145641 65.3653912 3.04507692 65.3201578 2.74635897 65.3201578 2.41789744 65.3201578 2.08712821 65.3661801 1.78815385 65.4582249 1.52123077 65.5502696 1.2545641 65.6788692 1.02687179 65.8440237.838410256 66.0089152.649692308 66.2045759.504051282 66.4307429.401487179 66.6566469.298923077 66.9049047.247641026 67.1752531.247641026M72.3477975 2.45266667L73.5357002 2.45266667C73.7363577 2.45266667 73.9075608 2.43215385 74.0487837 2.39112821 74.1900066 2.35010256 74.305194 2.28958974 74.3948718 2.21010256 74.4848126 2.13061538 74.5497699 2.03241026 74.5905325 1.91574359 74.6312952 1.79907692 74.651545 1.66369231 74.651545 1.50958974 74.651545 1.32266667 74.6213018 1.17112821 74.5600263 1.05574359 74.4992768.940358974 74.4164366.851128205 74.3125575.788307692 74.2084155.725487179 74.0882314.683692308 73.9520053.663179487 73.8155161.642410256 73.6719264.632153846 73.521236.632153846L72.3477975.632153846 72.3477975 2.45266667zM72.060618.324461538L73.4888889.324461538C73.6800789.324461538 73.8646943.341384615 74.0414201.374717949 74.2184089.407794872 74.374622.468820513 74.5097962.557282051 74.6449704.64574359 74.7527942.76574359 74.8327416.917282051 74.912952 1.0685641 74.9529257 1.26112821 74.9529257 1.49446154 74.9529257 1.90753846 74.8314267 2.22189744 74.5886917 2.43702564 74.3459566 2.65266667 73.99119 2.76035897 73.5249178 2.76035897L72.3477975 2.76035897 72.3477975 4.53830769 72.060618 4.53830769 72.060618.324461538z"/>
      <polygon points="81.643 4.538 81.357 4.538 81.357 .829 79.942 4.538 79.641 4.538 78.231 .829 78.231 4.538 77.944 4.538 77.944 .324 78.36 .324 79.792 4.153 81.234 .324 81.643 .324"/>
      <polygon points="87.685 4.538 84.846 4.538 84.846 .324 87.588 .324 87.588 .632 85.133 .632 85.133 2.191 87.433 2.191 87.433 2.499 85.133 2.499 85.133 4.231 87.685 4.231"/>
      <polygon points="93.797 4.538 93.42 4.538 91.023 .69 91.023 4.538 90.736 4.538 90.736 .324 91.131 .324 93.51 4.165 93.51 .324 93.797 .324"/>
      <polygon points="99.702 .632 98.327 .632 98.327 4.538 98.04 4.538 98.04 .632 96.68 .632 96.68 .325 99.702 .325"/>
    </g>
    <g transform="translate(0 51)">
      <path d="M12.8398945,14.8457077 L12.7671033,14.9141077 C12.7568176,14.9238 11.7089934,15.8872154 9.38626813,15.8872154 C6.03497143,15.8872154 3.20402637,12.6347538 3.20402637,8.78496923 C3.20402637,4.93518462 6.03497143,1.68272308 9.38626813,1.68272308 C11.0776088,1.68272308 12.4685538,2.32546154 13.6384879,3.64749231 L14.0799824,4.14595385 L14.0799824,0.839492308 L13.9096088,0.776353846 C13.8576527,0.757523077 12.6027956,0.308907692 9.38626813,0.308907692 C4.21070769,0.308907692 -0.000105494505,4.11106154 -0.000105494505,8.78496923 C-0.000105494505,13.8548769 3.77211429,17.2610308 9.38626813,17.2610308 C12.6798066,17.2610308 13.9808176,15.3463846 14.0346198,15.2646923 L14.3118066,14.8448769 L12.8398945,14.8457077 Z"/>
      <polygon points="67.604 17.261 69.709 17.261 69.709 6.344 67.604 4.072"/>
      <path d="M32.529178 8.78502462C32.529178 12.7012708 30.2040791 15.8869938 27.3459692 15.8869938 24.4881231 15.8869938 22.1627604 12.7012708 22.1627604 8.78502462 22.1627604 4.86877846 24.4881231 1.68277846 27.3459692 1.68277846 30.2040791 1.68277846 32.529178 4.86877846 32.529178 8.78502462M27.3459692.308963077C22.7213538.308963077 18.9588923 4.11111692 18.9588923 8.78502462 18.9588923 13.4586554 22.7213538 17.2608092 27.3459692 17.2608092 31.9705846 17.2608092 35.7330462 13.4586554 35.7330462 8.78502462 35.7330462 4.11111692 31.9705846.308963077 27.3459692.308963077M46.2788835.309683077L46.2770374.309683077C46.2474989.306913846 45.5414769.24516 44.4580484.24516 43.822444.24516 43.1894769.26676 42.5762901.309406154 40.313433.466975385 38.9306637.681590769 38.9169495.683806154L38.6998945.717867692 38.6998945 1.94325231 38.963367 1.93383692C38.9852571 1.93300615 41.1747956 1.85491385 42.2139165 1.85491385 43.2514549 1.85491385 44.8995429 1.93300615 44.9198505 1.93383692 48.9587077 2.06288308 51.4386198 6.01125231 51.4386198 8.78491385 51.4386198 12.70116 49.1135209 15.88716 46.2548835 15.88716L43.8161143 15.8938062 43.8161143 4.14312923 40.6119824 4.14312923 40.6119824 17.2609754 46.255411 17.2609754C50.8800264 17.2609754 54.6422242 13.4585446 54.6422242 8.78491385 54.6422242 4.11156 50.8810813.309683077 46.2788835.309683077M98.0869714 8.51757231L98.0869714 15.5040646C97.4964659 15.6749262 96.0778286 15.8870492 95.4548835 15.8870492 92.1035868 15.8870492 89.272378 12.6345877 89.272378 8.78508 89.272378 4.93501846 92.1035868 1.68255692 95.4548835 1.68255692 97.1462242 1.68255692 98.5371692 2.32557231 99.7071033 3.64732615L100.148334 4.14606462 100.148334.839326154 99.9782242.776464615C99.9262681.757633846 98.671411.308741538 95.4548835.308741538 90.2793231.308741538 86.0687736 4.11117231 86.0687736 8.78508 86.0687736 13.8547108 89.8404659 17.2608646 95.4548835 17.2608646 100.923191 17.2608646 101.276862 14.5553262 101.289257 14.4401262L101.290576 8.51757231 98.0869714 8.51757231z"/>
      <polygon points="79.101 11.887 70.302 .309 67.604 .309 67.604 2.009 79.333 17.049 79.333 17.261 81.19 17.261 81.19 .309 79.101 .309"/>
      <polygon points="59.522 3.513 62.725 3.513 62.725 2.542 59.522 2.542"/>
      <polygon points="62.725 .309 59.522 .309 59.522 .983 62.725 .983"/>
      <polygon points="59.522 2.161 62.725 2.161 62.725 1.32 59.522 1.32"/>
      <polygon points="59.522 17.261 62.725 17.261 62.725 3.928 59.522 3.928"/>
    </g>
    <g transform="translate(21)">
      <path d="M18.1061802 24.9250207C17.5736967 24.9250207 17.1419604 25.4485118 17.1419604 26.0939556 17.1419604 26.7396657 17.5736967 27.2631568 18.1061802 27.2631568 18.6386637 27.2631568 19.0704 26.7396657 19.0704 26.0939556 19.0704 25.4485118 18.6386637 24.9250207 18.1061802 24.9250207M41.0071648 24.9250207C40.4746813 24.9250207 40.0429451 25.4485118 40.0429451 26.0939556 40.0429451 26.7396657 40.4746813 27.2631568 41.0071648 27.2631568 41.5396484 27.2631568 41.9713846 26.7396657 41.9713846 26.0939556 41.9713846 25.4485118 41.5396484 24.9250207 41.0071648 24.9250207"/>
      <path d="M54.9348132,26.3148284 C54.0106813,26.6788225 53.0947253,26.3518402 52.889011,25.5841775 C52.6832967,24.8165148 53.2656264,23.8992071 54.1897582,23.535213 C55.1138901,23.1712189 56.0298462,23.4982012 56.2355604,24.2658639 C56.4412747,25.0335266 55.8589451,25.9508343 54.9348132,26.3148284 M29.7013187,41.7610118 C19.5498462,41.7450355 11.3283956,36.914858 11.3283956,30.0000355 C11.3283956,29.8551834 11.3336703,29.7116627 11.3405275,29.5684083 C11.3429011,29.5212781 11.3452747,29.4741479 11.3484396,29.4270178 C11.3545055,29.3292959 11.3634725,29.2321065 11.372967,29.1349172 C11.3858901,29.0049763 11.4009231,28.8750355 11.4199121,28.7461598 C11.4217582,28.7333787 11.4233407,28.7205976 11.4251868,28.7078166 C11.6295824,27.3487633 12.1528352,25.2747692 12.942989,24.0794734 C14.8413626,21.3070473 18.2274725,19.4601834 22.0904176,19.4601834 C25.0643077,19.4601834 27.7536264,20.5566923 29.7013187,22.3250059 C31.6492747,20.5566923 34.3385934,19.4601834 37.3122198,19.4601834 C41.1754286,19.4601834 44.5612747,21.3070473 46.4596484,24.0794734 C47.2500659,25.2747692 47.7730549,27.3487633 47.9774505,28.7078166 C47.9792967,28.7205976 47.9811429,28.7333787 47.982989,28.7461598 C48.0017143,28.8750355 48.017011,29.0049763 48.0299341,29.1349172 C48.0391648,29.2321065 48.0481319,29.3292959 48.0544615,29.4270178 C48.0573626,29.4741479 48.06,29.5212781 48.0623736,29.5684083 C48.0692308,29.7116627 48.0742418,29.8551834 48.0742418,30.0000355 C48.0742418,36.914858 39.8530549,41.7450355 29.7013187,41.7610118 M6.51362637,25.5841775 C6.30791209,26.3518402 5.39195604,26.6788225 4.46808791,26.3148284 C3.54395604,25.9508343 2.96162637,25.0335266 3.16734066,24.2658639 C3.37305495,23.4982012 4.28901099,23.1712189 5.21287912,23.535213 C6.13701099,23.8992071 6.71934066,24.8165148 6.51362637,25.5841775 M54.8886593,18.5857456 C53.307033,18.5857456 51.9208352,19.598645 51.145978,21.1177278 C48.5091429,15.345213 43.023956,9.99713609 36.2451429,7.79506509 C32.5873846,6.32151479 30.0188571,3.49343787 29.7013187,0.188201183 C29.3837802,3.49343787 26.8152527,6.32151479 23.1574945,7.79506509 C16.3786813,9.99713609 10.8934945,15.345213 8.25692308,21.1177278 C7.4818022,19.598645 6.09586813,18.5857456 4.51424176,18.5857456 C2.08523077,18.5857456 0.116175824,20.973142 0.116175824,23.9178462 C0.116175824,26.8625503 2.08523077,29.2499467 4.51424176,29.2499467 C5.25296703,29.2499467 5.9487033,29.0278757 6.56004396,28.637787 C6.76892308,38.199355 17.0443516,44.4061598 29.7013187,44.4226686 C42.3582857,44.4061598 52.6337143,38.199355 52.8428571,28.637787 C53.4539341,29.0278757 54.1496703,29.2499467 54.8886593,29.2499467 C57.3176703,29.2499467 59.2867253,26.8625503 59.2867253,23.9178462 C59.2867253,20.973142 57.3176703,18.5857456 54.8886593,18.5857456"/>
    </g>
  </g>
</svg>
