<svg xmlns="http://www.w3.org/2000/svg" width="166" height="35" viewBox="0 0 166 35">
  <g fill="#202D40" fill-rule="evenodd">
    <g transform="translate(55 24)">
      <path d="M3.69339193,1.87523554 C3.66449368,1.72945041 3.61045394,1.59318595 3.53156171,1.46673967 C3.45266948,1.33999587 3.35441541,1.22991322 3.23593257,1.13619421 C3.11773871,1.04247521 2.98162793,0.968690083 2.82788922,0.915136364 C2.67415051,0.861582645 2.50914148,0.834805785 2.33286213,0.834805785 C2.08318122,0.834805785 1.8566189,0.880921488 1.65259723,0.973152893 C1.44886454,1.0653843 1.27547502,1.20164876 1.13213967,1.38194628 C0.989093317,1.56194628 0.878413004,1.78657438 0.800965683,2.05583058 C0.723518362,2.32568182 0.684505719,2.63867355 0.684505719,2.99599587 C0.684505719,3.35302066 0.723518362,3.66779752 0.800965683,3.94032645 C0.878413004,4.21255785 0.989093317,4.44135124 1.13213967,4.62551653 C1.27547502,4.81027686 1.44770861,4.95040909 1.64884046,5.04531818 C1.84997231,5.14082231 2.07393377,5.18842562 2.32101385,5.18842562 C2.69437929,5.18842562 3.00185671,5.09381405 3.2437351,4.90488843 C3.48561349,4.71566529 3.63559542,4.43956612 3.69339193,4.07629339 L4.02052017,4.07629339 C3.98902107,4.30895455 3.92457797,4.51632645 3.82747983,4.69930165 C3.73009272,4.88227686 3.6078531,5.03639256 3.46076099,5.16135124 C3.31337989,5.28660744 3.14403612,5.38181405 2.95215172,5.4472686 C2.76026731,5.51302066 2.55248886,5.54545041 2.32910536,5.54545041 C2.0239398,5.54545041 1.74998435,5.48535124 1.50695003,5.36485537 C1.26362673,5.24406198 1.05671523,5.07358264 0.88592655,4.85341736 C0.714848886,4.63325207 0.58336183,4.36578099 0.491465382,4.05189669 C0.399568934,3.7380124 0.353331728,3.38604545 0.353331728,2.99599587 C0.353331728,2.60921901 0.399568934,2.26052479 0.491465382,1.95110331 C0.58336183,1.64168182 0.715426851,1.37718595 0.887949428,1.15850826 C1.05989404,0.939533058 1.26767249,0.771433884 1.5107068,0.653913223 C1.7540301,0.536392562 2.02654064,0.477780992 2.32910536,0.477780992 C2.53659482,0.477780992 2.73454786,0.511698347 2.9226755,0.580128099 C3.11022517,0.648557851 3.27927995,0.744657025 3.42926189,0.868128099 C3.57895485,0.991896694 3.70524022,1.1388719 3.80782902,1.31054132 C3.91012884,1.4816157 3.98121854,1.66964876 4.02052017,1.87523554 L3.69339193,1.87523554 L3.69339193,1.87523554 Z"/>
      <polygon points="9.961 5.456 7.418 5.456 7.418 .566 7.733 .566 7.733 5.099 9.961 5.099"/>
      <path d="M15.0609536 5.18833636C15.3080337 5.18833636 15.5360409 5.1398405 15.7452643 5.0434438 15.9541987 4.94645207 16.1348128 4.80423719 16.2873955 4.61679917 16.4396893 4.42906364 16.5581722 4.19937769 16.6422661 3.92714628 16.72636 3.65461736 16.7682625 3.34430331 16.7682625 2.99590661 16.7682625 2.64453471 16.7254931 2.3348157 16.6402432 2.06704711 16.5547044 1.79898099 16.4365105 1.57375785 16.2853727 1.39048512 16.1342348 1.20750992 15.9553546 1.06916281 15.7490211.975443802 15.5426875.881427273 15.3172812.834716529 15.0728019.834716529 14.823121.834716529 14.5936689.882319835 14.3847345.977526446 14.1758001 1.07273306 13.994897 1.21227025 13.8426033 1.39524545 13.6900205 1.57822066 13.5709597 1.80374132 13.4857098 2.07150992 13.400171 2.33957603 13.3574016 2.64750992 13.3574016 2.99590661 13.3574016 3.34430331 13.399304 3.65461736 13.4836869 3.92714628 13.5677809 4.19937769 13.6853967 4.42906364 13.8365346 4.61679917 13.9876725 4.80423719 14.1677086 4.94645207 14.376643 5.0434438 14.5858663 5.1398405 14.8138736 5.18833636 15.0609536 5.18833636M15.0649994.477691736C15.3591836.477691736 15.6314052.536898347 15.8810861.656204132 16.130767.775212397 16.34577.944799174 16.5258061 1.16526198 16.7058423 1.38542727 16.8465768 1.65022066 16.9477207 1.95993967 17.0488645 2.26965868 17.0997255 2.61508017 17.0997255 2.99590661 17.0997255 3.37375785 17.0497315 3.71917934 16.9497435 4.03157603 16.8497556 4.34427025 16.709888 4.6129314 16.5298519 4.8375595 16.3495268 5.06248512 16.1353907 5.23683223 15.8871547 5.36000579 15.6386297 5.48377438 15.3646743 5.54536116 15.0649994 5.54536116 14.7653245 5.54536116 14.4905021 5.48377438 14.2408212 5.36000579 13.9908513 5.23683223 13.7761373 5.06308017 13.5961011 4.83993967 13.416065 4.61679917 13.2759085 4.34903058 13.1762095 4.03633636 13.0762216 3.72364215 13.0262276 3.37673306 13.0262276 2.99590661 13.0262276 2.61210496 13.0767995 2.26519587 13.1779434 1.95547686 13.2790873 1.64605537 13.4206887 1.38185702 13.6018808 1.16288182 13.7833618.944204132 13.9983648.775212397 14.2466008.656204132 14.4951258.536898347 14.7676364.477691736 15.0649994.477691736M22.0814666 5.54542066C21.8236942 5.54542066 21.6037784 5.51477603 21.4211415 5.45408182 21.2382155 5.39309008 21.0864997 5.31037934 20.965705 5.20594959 20.8446213 5.10211488 20.7486791 4.9801314 20.6778784 4.83999917 20.6067887 4.69986694 20.5527489 4.55110661 20.5160482 4.39371818 20.4793474 4.23573471 20.4562288 4.07209835 20.4469813 3.90251157 20.4380229 3.73262727 20.4331102 3.56750331 20.4331102 3.40684215L20.4331102.566709917 20.7486791.566709917 20.7486791 3.39345372C20.7486791 3.76565207 20.7781553 4.06823058 20.8373967 4.3017843 20.8966382 4.53533802 20.9833329 4.7180157 21.09777 4.84892479 21.2119181 4.9801314 21.3514967 5.06909008 21.5156388 5.11699091 21.6797809 5.16459421 21.8684865 5.18839587 22.0814666 5.18839587 22.2970476 5.18839587 22.488354 5.16459421 22.6550969 5.11699091 22.8221288 5.06909008 22.9614184 4.97923884 23.0732547 4.84654463 23.1848019 4.71444545 23.2697628 4.53206529 23.3275593 4.29970165 23.3853558 4.06763554 23.4142541 3.76565207 23.4142541 3.39345372L23.4142541.566709917 23.729823.566709917 23.729823 3.40684215C23.729823 3.7430405 23.7046815 4.04383388 23.6549765 4.30892479 23.6049825 4.57371818 23.5182878 4.79745372 23.3946033 4.98072645 23.2709187 5.16370165 23.1027309 5.30383388 22.8897508 5.4005281 22.6770596 5.49722231 22.4074389 5.54542066 22.0814666 5.54542066M30.427109 2.97350331C30.427109 2.65218099 30.3987887 2.36477603 30.3424371 2.11188347 30.2857965 1.85899091 30.1863865 1.64358595 30.0444961 1.46685868 29.9026057 1.28953636 29.7127441 1.1547595 29.4749115 1.06223058 29.2367899.970296694 28.936537.923883471 28.573575.923883471L27.5919013.923883471 27.5919013 5.09928843 28.573575 5.09928843C28.9339362 5.09928843 29.2330331 5.0513876 29.4708657 4.95618099 29.7086984 4.86097438 29.8985599 4.72173471 30.0407393 4.5387595 30.1826297 4.35548678 30.2826177 4.13294132 30.3404142 3.87112314 30.3979217 3.60930496 30.427109 3.30999917 30.427109 2.97350331M30.7623287 2.97350331C30.7623287 4.62861074 30.0352486 5.45631322 28.5816665 5.45631322L27.2763323 5.45631322 27.2763323.571321488 28.5816665.571321488C29.3099025.571321488 29.8552125.770065289 30.2181746 1.16755289 30.5808477 1.5650405 30.7623287 2.16692479 30.7623287 2.97350331M43.2453341 2.97350331C43.2453341 2.65218099 43.2170138 2.36477603 43.1606623 2.11188347 43.1043107 1.85899091 43.0049007 1.64358595 42.8632992 1.46685868 42.7214088 1.28953636 42.5312583 1.1547595 42.2934256 1.06223058 42.055593.970296694 41.7550512.923883471 41.3923781.923883471L40.4104154.923883471 40.4104154 5.09928843 41.3923781 5.09928843C41.7524503 5.09928843 42.0515473 5.0513876 42.2893799 4.95618099 42.5275015 4.86097438 42.717363 4.72173471 42.8592535 4.5387595 43.0008549 4.35548678 43.1008429 4.13294132 43.1589284 3.87112314 43.2164359 3.60930496 43.2453341 3.30999917 43.2453341 2.97350331M43.5805539 2.97350331C43.5805539 4.62861074 42.8537628 5.45631322 41.4001806 5.45631322L40.0951355 5.45631322 40.0951355.571321488 41.4001806.571321488C42.1284166.571321488 42.6737267.770065289 43.0363998 1.16755289 43.3993618 1.5650405 43.5805539 2.16692479 43.5805539 2.97350331"/>
      <polygon points="50.069 5.456 46.95 5.456 46.95 .566 49.963 .566 49.963 .924 47.265 .924 47.265 2.732 49.793 2.732 49.793 3.09 47.265 3.09 47.265 5.099 50.069 5.099"/>
      <polygon points="56.829 .567 55.138 5.456 54.731 5.456 53.04 .567 53.391 .567 54.936 5.01 56.482 .567"/>
      <polygon points="63.093 5.456 59.974 5.456 59.974 .566 62.986 .566 62.986 .924 60.289 .924 60.289 2.732 62.817 2.732 62.817 3.09 60.289 3.09 60.289 5.099 63.093 5.099"/>
      <polygon points="69.036 5.456 66.493 5.456 66.493 .566 66.809 .566 66.809 5.099 69.036 5.099"/>
      <path d="M74.1368453 5.18833636C74.3836364 5.18833636 74.6119326 5.1398405 74.8208669 5.0434438 75.0298013 4.94645207 75.2107044 4.80423719 75.3629982 4.61679917 75.515581 4.42906364 75.6337748 4.19937769 75.7181577 3.92714628 75.8022517 3.65461736 75.8441541 3.34430331 75.8441541 2.99590661 75.8441541 2.64453471 75.8013847 2.3348157 75.7161349 2.06704711 75.630596 1.79898099 75.5124022 1.57375785 75.3609753 1.39048512 75.2098374 1.20750992 75.0312462 1.06916281 74.8249127.975443802 74.6182902.881427273 74.3931728.834716529 74.1484046.834716529 73.8987237.834716529 73.6695605.882319835 73.4603371.977526446 73.2516918 1.07273306 73.0707887 1.21227025 72.9182059 1.39524545 72.7659121 1.57822066 72.6468513 1.80374132 72.5613125 2.07150992 72.4760626 2.33957603 72.4330042 2.64750992 72.4330042 2.99590661 72.4330042 3.34430331 72.4751957 3.65461736 72.5592896 3.92714628 72.6433835 4.19937769 72.7609994 4.42906364 72.9124262 4.61679917 73.0635641 4.80423719 73.2436002 4.94645207 73.4525346 5.0434438 73.661469 5.1398405 73.8897652 5.18833636 74.1368453 5.18833636M74.140602.477691736C74.4350753.477691736 74.7072968.536898347 74.9569777.656204132 75.2066586.775212397 75.4213727.944799174 75.6014088 1.16526198 75.7814449 1.38542727 75.9224684 1.65022066 76.0233233 1.95993967 76.1247562 2.26965868 76.1753281 2.61508017 76.1753281 2.99590661 76.1753281 3.37375785 76.1253341 3.71917934 76.0253462 4.03157603 75.9253582 4.34427025 75.7854907 4.6129314 75.6054545 4.8375595 75.4254184 5.06248512 75.2112824 5.23683223 74.9627574 5.36000579 74.7145214 5.48377438 74.4402769 5.54536116 74.140602 5.54536116 73.8412161 5.54536116 73.5661048 5.48377438 73.3164238 5.36000579 73.0667429 5.23683223 72.8520289 5.06308017 72.6719928 4.83993967 72.4916677 4.61679917 72.3515111 4.34903058 72.2521011 4.03633636 72.1518242 3.72364215 72.1021192 3.37673306 72.1021192 2.99590661 72.1021192 2.61210496 72.1526911 2.26519587 72.253835 1.95547686 72.3549789 1.64605537 72.4962914 1.38185702 72.6777724 1.16288182 72.8589645.944204132 73.0739675.775212397 73.3224925.656204132 73.5707285.536898347 73.843528.477691736 74.140602.477691736M79.824484 3.03625041L81.1298182 3.03625041C81.3503119 3.03625041 81.5384395 3.01244876 81.6936231 2.96484545 81.8488067 2.91724215 81.9753811 2.84702727 82.0739241 2.75479587 82.1727562 2.66256446 82.2441349 2.54861405 82.2889272 2.41324215 82.3337194 2.27787025 82.3559711 2.12077934 82.3559711 1.94196942 82.3559711 1.72477934 82.3227381 1.54924215 82.2554052 1.41506033 82.1886502 1.28147355 82.0976207 1.17793636 81.9834726 1.10474628 81.8690355 1.03215124 81.7369705.983655372 81.5872775.959853719 81.4372956.935754545 81.2795111.923853719 81.1139241.923853719L79.824484.923853719 79.824484 3.03625041zM79.5089151.566531405L81.0783793.566531405C81.2884696.566531405 81.4913353.586465289 81.6855316.624845455 81.8800169.66352314 82.0516725.734333058 82.2002095.836680165 82.3487465.939622314 82.4672294 1.07886198 82.5550801 1.25469669 82.6432197 1.43023388 82.6871451 1.65337438 82.6871451 1.92411818 82.6871451 2.40342397 82.5536352 2.76848182 82.2869043 3.01810165 82.0201734 3.26801901 81.6303359 3.39327521 81.1179699 3.39327521L79.824484 3.39327521 79.824484 5.45628347 79.5089151 5.45628347 79.5089151.566531405z"/>
      <polygon points="90.039 5.456 89.724 5.456 89.724 1.152 88.17 5.456 87.839 5.456 86.289 1.152 86.289 5.456 85.974 5.456 85.974 .566 86.431 .566 88.004 5.01 89.589 .566 90.039 .566"/>
      <polygon points="96.677 5.456 93.558 5.456 93.558 .566 96.571 .566 96.571 .924 93.874 .924 93.874 2.732 96.401 2.732 96.401 3.09 93.874 3.09 93.874 5.099 96.677 5.099"/>
      <polygon points="103.394 5.456 102.98 5.456 100.346 .991 100.346 5.456 100.031 5.456 100.031 .566 100.464 .566 103.079 5.023 103.079 .566 103.394 .566"/>
      <polygon points="109.883 .924 108.372 .924 108.372 5.456 108.057 5.456 108.057 .924 106.563 .924 106.563 .567 109.883 .567"/>
    </g>
    <g transform="translate(55 4)">
      <path d="M14.0114341,14.9933276 L13.9320019,15.0638757 C13.9207778,15.0738724 12.7773573,16.0675438 10.2427224,16.0675438 C6.58567623,16.0675438 3.49645503,12.7129388 3.49645503,8.7422519 C3.49645503,4.77156496 6.58567623,1.41696 10.2427224,1.41696 C12.0883695,1.41696 13.6062149,2.07988364 14.8828858,3.44343273 L15.3646592,3.95754843 L15.3646592,0.547247603 L15.1787419,0.482126281 C15.1220457,0.462704132 13.7527039,0 10.2427224,0 C4.5949791,0 0,3.92156033 0,8.7422519 C0,13.9713798 4.11637141,17.4845038 10.2427224,17.4845038 C13.8367409,17.4845038 15.2564473,15.5097283 15.315158,15.4254704 L15.6176334,14.9924707 L14.0114341,14.9933276 Z"/>
      <polygon points="73.776 17.624 76.073 17.624 76.073 6.365 73.776 4.021"/>
      <path d="M35.5011205 8.88204853C35.5011205 12.9212842 32.9638954 16.2070548 29.845031 16.2070548 26.7264544 16.2070548 24.1889416 12.9212842 24.1889416 8.88204853 24.1889416 4.84281283 26.7264544 1.55675663 29.845031 1.55675663 32.9638954 1.55675663 35.5011205 4.84281283 35.5011205 8.88204853M29.845031.139796628C24.7984972.139796628 20.6927743 4.06135696 20.6927743 8.88204853 20.6927743 13.7024545 24.7984972 17.6240148 29.845031 17.6240148 34.8915648 17.6240148 38.9972877 13.7024545 38.9972877 8.88204853 38.9972877 4.06135696 34.8915648.139796628 29.845031.139796628M50.5052554.140510678L50.5032408.140510678C50.4710075.137654479 49.7005729.0739612562 48.5182997.0739612562 47.824707.0739612562 47.1339924.0962396033 46.4648626.140225058 43.9955578.302742744 42.4866341.524098116 42.4716686.526383074L42.2348111.561514314 42.2348111 1.82538208 42.5223211 1.81567101C42.5462083 1.81481415 44.9355053 1.73426936 46.0694285 1.73426936 47.2016249 1.73426936 49.0000731 1.81481415 49.0222335 1.81567101 53.4295685 1.94876985 56.1357309 6.02113745 56.1357309 8.88190572 56.1357309 12.9211414 53.5985058 16.2071976 50.4790658 16.2071976L47.8177999 16.2140525 47.8177999 4.09434605 44.3213449 4.09434605 44.3213449 17.6241576 50.4796414 17.6241576C55.5261752 17.6241576 59.6316103 13.7023117 59.6316103 8.88190572 59.6316103 4.06178539 55.5273264.140510678 50.5052554.140510678M107.03996 8.60616833L107.03996 15.8120711C106.395581 15.9882986 104.847517 16.2070834 104.167739 16.2070834 100.510692 16.2070834 97.4211835 12.8524784 97.4211835 8.88207709 97.4211835 4.91110453 100.510692 1.55649957 104.167739 1.55649957 106.013386 1.55649957 107.531231 2.21970883 108.807902 3.5829723L109.289388 4.09737362 109.289388.686787174 109.103758.621951471C109.047062.602529322 107.67772.13953957 104.167739.13953957 98.5199953.13953957 93.925304 4.06138552 93.925304 8.88207709 93.925304 14.1109194 98.0410999 17.6240434 104.167739 17.6240434 110.134937 17.6240434 110.520874 14.8335376 110.534401 14.7147197L110.53584 8.60616833 107.03996 8.60616833z"/>
      <polygon points="86.322 12.082 76.72 .14 73.776 .14 73.776 1.893 86.575 17.405 86.575 17.624 88.601 17.624 88.601 .14 86.322 .14"/>
      <polygon points="64.956 3.445 68.452 3.445 68.452 2.443 64.956 2.443"/>
      <polygon points="64.956 .835 68.452 .835 68.452 .14 64.956 .14"/>
      <polygon points="64.956 2.051 68.452 2.051 68.452 1.183 64.956 1.183"/>
      <polygon points="64.956 17.624 68.452 17.624 68.452 3.873 64.956 3.873"/>
    </g>
    <path d="M14.1497525 19.4332438C13.7309654 19.4332438 13.3913464 19.8442769 13.3913464 20.3516322 13.3913464 20.8586983 13.7309654 21.2700207 14.1497525 21.2700207 14.5685395 21.2700207 14.9081586 20.8586983 14.9081586 20.3516322 14.9081586 19.8442769 14.5685395 19.4332438 14.1497525 19.4332438M32.1620695 19.4332438C31.7432825 19.4332438 31.4036634 19.8442769 31.4036634 20.3516322 31.4036634 20.8586983 31.7432825 21.2700207 32.1620695 21.2700207 32.5808566 21.2700207 32.9204756 20.8586983 32.9204756 20.3516322 32.9204756 19.8442769 32.5808566 19.4332438 32.1620695 19.4332438"/>
    <path d="M43.116563,20.5250702 C42.3897093,20.8111446 41.669453,20.5539959 41.5073882,19.951186 C41.3456102,19.3480868 41.8036943,18.6272603 42.530548,18.3414752 C43.2574017,18.0554008 43.9779448,18.3122603 44.1397228,18.9153595 C44.3015008,19.5184587 43.8434167,20.2389959 43.116563,20.5250702 M23.2697866,32.659657 C15.2850095,32.6469298 8.81876567,28.8524669 8.81876567,23.4202355 C8.81876567,23.3062686 8.82278144,23.1934587 8.8282314,23.0812273 C8.83023929,23.0439132 8.83196033,23.0068884 8.83454189,22.9701529 C8.83941818,22.8932107 8.84630235,22.8168471 8.8537602,22.7404835 C8.86408646,22.638376 8.87584692,22.5365579 8.89076262,22.4350289 C8.89219682,22.4251942 8.89334418,22.4150702 8.89506523,22.4049463 C9.05569587,21.3373017 9.46731189,19.7079215 10.0886083,18.7689959 C11.5818996,16.5908967 14.245213,15.1399876 17.2834268,15.1399876 C19.6226106,15.1399876 21.7377719,16.0013926 23.2697866,17.3906901 C24.8018014,16.0013926 26.9169627,15.1399876 29.2558596,15.1399876 C32.2943603,15.1399876 34.9576737,16.5908967 36.4506782,18.7689959 C37.0722614,19.7079215 37.4835906,21.3373017 37.6445081,22.4049463 C37.6459423,22.4150702 37.6473765,22.4251942 37.6485238,22.4350289 C37.6634395,22.5365579 37.6754868,22.638376 37.6855263,22.7404835 C37.6929841,22.8168471 37.6998683,22.8932107 37.7050314,22.9701529 C37.7073261,23.0068884 37.709334,23.0439132 37.7110551,23.0812273 C37.716505,23.1934587 37.7205208,23.3062686 37.7205208,23.4202355 C37.7205208,28.8524669 31.2542769,32.6469298 23.2697866,32.659657 M5.03189828,19.951186 C4.87012028,20.5539959 4.14957711,20.8111446 3.4230103,20.5250702 C2.69615664,20.2389959 2.23807247,19.5184587 2.39985048,18.9153595 C2.56162848,18.3122603 3.28188481,18.0554008 4.00873846,18.3414752 C4.73559212,18.6272603 5.19367629,19.3480868 5.03189828,19.951186 M43.0801343,14.4530041 C41.8361073,14.4530041 40.7461137,15.2487479 40.1365777,16.442219 C38.0627214,11.9072603 33.7483545,7.70581405 28.4165645,5.97577273 C25.5398418,4.81816942 23.5196247,2.59639256 23.2697866,-0.000260330579 C23.0199486,2.59639256 20.9997315,4.81816942 18.1227219,5.97577273 C12.790932,7.70581405 8.47685188,11.9072603 6.40299555,16.442219 C5.79345963,15.2487479 4.70317915,14.4530041 3.45915219,14.4530041 C1.54879491,14.4530041 -0.000143420216,16.3285413 -0.000143420216,18.6420124 C-0.000143420216,20.9554835 1.54879491,22.8307314 3.45915219,22.8307314 C4.04029091,22.8307314 4.58758245,22.6565992 5.06832702,22.3499876 C5.23268659,29.8616818 13.3147026,34.7376736 23.2697866,34.7506901 C33.2248707,34.7376736 41.3065999,29.8616818 41.4712463,22.3499876 C41.9519908,22.6565992 42.4989955,22.8307314 43.0801343,22.8307314 C44.9907784,22.8307314 46.5394299,20.9554835 46.5394299,18.6420124 C46.5394299,16.3285413 44.9907784,14.4530041 43.0801343,14.4530041"/>
  </g>
</svg>
